<?xml version="1.0" encoding="UTF-8"?><svg xmlns="http://www.w3.org/2000/svg" xmlns:xlink="http://www.w3.org/1999/xlink" height="399.9" preserveAspectRatio="xMidYMid meet" version="1.0" viewBox="-26.0 -1.3 489.7 399.9" width="489.7" zoomAndPan="magnify"><g id="change1_1"><path d="M41.8,382.1c0,0-2.4,0-5.3-15.9c-3.7-19.9,4.5-56.8,5.7-59.7C33.8,300.2,1.4,269.9,3,228s32.9-84.2,32.9-84.2 S40.6,54.9,87.7,4.5c17.1,1.7,65.5,43.4,74.3,51.2c22.3-6.8,85.8-5.9,109.4-0.2c0,0,32.2-36.9,76.6-49c7.5,2.7,58.1,87.5,48.7,138.1 c15.2,13.8,66.9,92.4-4.2,165.6c13.6,38.2,5,72,5,72L41.8,382.1L41.8,382.1z M41.8,382.1c0,0-5.3-2.7-6.7-12.4 c-3.1-21.2,5.7-59.7,7.1-63.3C33.8,300.2,1.4,269.9,3,228s32.9-84.2,32.9-84.2S38.6,52.7,85.7,2.2c17.1,1.7,68.5,43.5,77.3,51.4 c22.3-6.8,84.9-3.9,108.5,1.8c0,0,32.3-39,76.8-51.1c7.5,2.7,58,89.6,48.5,140.2c15.2,13.8,66.9,92.4-4.2,165.6 c13.6,38.2,4.1,72,4.1,72H41.8z" fill="#fff"/></g><g id="change2_1"><path d="M192.1,52.3c0,0,58.8,65.5-17.5,125.8S1.3,208,14.4,182c0,0,12.7-32.2,24.7-39.8C31.8,122.9,49,68.9,64.7,36.9 c0,0,15.8-30.2,23-32.4s53.9,30.3,72.7,47.6C172.4,53.6,192.1,52.3,192.1,52.3z M343.6,274.8c-9.3-14.5-35-35.4-39.2-6.1 c-10.4-8.2-22.2-4.6-20.7,14.7c-7.4-7.5-24.9-9.5-27.1,23.7c-2.2,33.2,15.5,75.2,15.5,75.2h87.2 C359.2,382.3,352.9,289.4,343.6,274.8z" fill="#efb07d"/></g><g id="change3_1"><path d="M84.6,89.9c0,0-14.4,22.2-26.2,42.2c-0.3-68.9,33.7-98.9,33.7-98.9C83.5,51.9,84.6,89.9,84.6,89.9z M348.9,89.9 c0,0,13.1,22.2,24.8,42.2c0.3-68.9-33.7-98.9-33.7-98.9C348.7,51.9,348.9,89.9,348.9,89.9z M58.4,268.9 C2.2,225.4,24.2,164.5,24.2,164.5c-30.9,33.2-28,103.3,8.1,138.5c2.6,2.5,5.5,4.9,8.6,7.2C46.1,297.2,53.4,280.4,58.4,268.9z M407.3,164.5c0,0,21.7,60.1-33.2,103.6c4.6,11.2,12.3,29.6,17.8,41.1c2.6-2,5.1-4.1,7.3-6.2C435.2,267.8,438.1,197.7,407.3,164.5z M81.6,314.7c0,0,4.5-27.7,21.9-24c6.9,1.5,10.2,9.8,7.2,17.7c7.4-13.5,14.7-11.9,17.8-10.9s9.9,6.2,6.3,18.2 c7.8-12.5,17.7-8.5,19.8-5c2.1,3.4,6.8,8.2-5.5,45.2c-6,16.7-9.6,26.4-9.6,26.4H76.6L81.6,314.7z M356.9,382.3h-62.9 c0,0-3.6-9.7-9.6-26.4c-12.3-37-7.6-41.8-5.5-45.2s12-7.5,19.8,5c-3.7-12,3.1-17.2,6.3-18.2c3.1-1,10.4-2.6,17.8,10.9 c-3-7.9,0.3-16.2,7.2-17.7c17.4-3.7,21.9,24,21.9,24L356.9,382.3z M258.4,336.4l-1.7-11.2c-12.6,2.1-26.1,4.6-40.5,4.6 s-27.8-2.5-40.5-4.6l-1.7,11.2c0,0-3.5,12.7-7.8,24.3c17.3,4.3,49.9,5.5,49.9,5.5s32.6-1.2,49.9-5.5 C262.6,348.3,258.4,336.4,258.4,336.4z M295.5,61.9c0,0,28.6-38.9,52.1-52.2c0.9-3.4-12.9-6-33.2,9.6c-20.3,15.7-43.6,36-43.6,36 L295.5,61.9z M138.9,61.9c0,0-14.4-38.6-52.1-52.2c0.4-3.9,13.4-3.9,30.1,6.7S166,54.6,166,54.6L138.9,61.9z" fill="#ef5454" opacity=".3"/></g><g id="change1_2"><path d="M85.7,6.5c0,0-36.1,67-33.6,141c-21.5,17-32.7,34.5-44.1,63.8c-0.4-17.8,10.2-38,27.9-67.4 C38.6,106.2,46.9,41.3,85.7,6.5z M36.8,306.1c0,0,3.7,0.4,6.6-12.9c-36.3-36.4-36-80-36-80C-11.6,254.8,36.8,306.1,36.8,306.1z M426,213.2c0,0,0.3,43.6-36,80c2.9,13.4,6.6,12.9,6.6,12.9S445,254.8,426,213.2z" fill="#fff"/></g><g id="change4_1"><path d="M149,155.2c0,0-23.6,29.7-45,68C79.1,268,79.2,382.3,79.2,382.3h-56c0,0-0.1-113.3,31-161.5 c31.5-48.9,44.5-49,44.5-49L149,155.2z M283.6,155.2c0,0,23.6,29.7,45,68c24.9,44.7,24.8,159.1,24.8,159.1h56 c0,0,0.1-113.3-31-161.5c-31.5-48.9-44.5-49-44.5-49L283.6,155.2z" fill="#89e3f7"/></g><g id="change5_1"><path d="M411.8,382.3h-54.9c0,0-9.3-95.8-12.2-122.7c45.1,139,24.6,4.9,20.7-15.3c12.9,24.5,20.3,115.3,28.7,91 c8.3-24.3-13.3-102.4-12.3-100.8C410.3,278.7,411.8,382.3,411.8,382.3z M21.7,382.3h54.9c0,0,9.3-95.8,12.2-122.7 c-45.1,139-24.6,4.9-20.7-15.3c-12.9,24.5-20.3,115.3-28.7,91C31.1,311,52.7,233,51.7,234.5C23.3,278.7,21.7,382.3,21.7,382.3z" fill="#2b0806" opacity=".2"/></g><g id="change5_2"><path d="M250.7,114c-6.6-4-1.7-13.9,4.9-9.9c5.5,4,9,8.5,18.5,10.2c3.2,0.6,6.1,1.6,6.1,4.5c0.1,2.8-4.2,3.6-7.4,3.1 C265.3,120.7,257.2,118,250.7,114z M407.5,299.6c53.3-63.1,14.5-129.4-5.3-155.1C399.9,55.7,356.7-1.3,345.8,0 c-37,9.9-72.6,46.2-77.8,51.6c-21.3-5.6-41-6.2-50.7-6c-9.7-0.1-29.4,0.4-50.7,6C161.3,46.2,125.7,9.9,88.7,0 c-11-1.3-54.1,55.6-56.5,144.4c-19.7,25.6-58.2,91.4-6,154.2c-1,6.4-1.9,13.2-2.6,20.2c-2.5,27.1-5.4,47.9-6.8,63.4H25 c0,0,1.7-64,14.2-113.6c12.8-50.5,46.5-85.4,54.4-93.1c1.6-0.3,3.3-0.6,5.2-1.1c13-3.2,28.7-6.8,41.3-10.8 c-18,19.4-54,67.9-61.4,151.6c-2.5,28.7-5.4,50.6-6.8,67h8.1c0,0,1.2-47,8.8-93c4.5-11.5,8.9-18.9,15.5-25.4 c13.1-12.9,26.2-2.5,21.4,14.8c4-6.3,8.5-13.1,15.2-9.6c8.3,4.2,5.9,20.9,5.9,20.9s10.3-10.4,16.4-7.6c9.8,4.5,12.7,23.8,5.3,57.1 c-1.6,7.4-6.3,24.7-11.4,42.8h8.7c0.9-3.3,1.6-6,2-7.8l0.1-0.4l2.3-9.7l0,0v0c5-21.4,7.6-37.8,9-50.6c3.7-33.4-16.9-45.1-26-35.4 c1.8-17.2-13.8-22.5-22.8-14c0.5-3.1-1-7.6-4.5-10.6c-5.4-4.2-9.1-3-9.1-3c-3.5,0.2-7.7,1.5-12.5,4.8c-4.5,3-8,7.1-11.7,12.9 c0.5-2.1,0.9-4.1,1.4-6.1c11.2-46.7,42.1-86.4,55.7-102.1c7.5-3.1,12.6-6.4,13.3-10c1-5.4-69.7,1.5-75.2,5.2c-8,5.3,0.8,8.5,5.9,6.5 c-11.3,5-18.1,14.3-6.7,14.4c-8.5,6.7-44.4,38.6-59,110.7c-18.9-25.2-40.9-75.6,12.6-141.3C39,125.5,43.9,56.2,86.8,9.8 c6-3,37.8,14.9,70.2,44.7c-6,2-12.1,4.5-18,7.4c2.3,2.6,32.3-7.1,78.3-7.1s76.1,9.7,78.3,7.1c-5.9-3-12-5.4-18-7.4 c32.4-29.8,64.2-47.8,70.2-44.7c36.1,43.3,48.6,103.2,45.8,135.9c54.1,66.5,30.9,117.4,11.9,142.3C391,215.1,354.8,183,346.2,176.3 c11.5-0.1,4.6-9.4-6.7-14.4c5.1,2,13.9-1.1,5.9-6.5c-5.5-3.7-76.2-10.6-75.2-5.2c0.7,3.6,5.8,6.9,13.3,10 c13.6,15.8,44.5,55.4,55.7,102.1c0.5,2.2,1,4.4,1.5,6.6c-3.8-6.1-7.4-10.3-12-13.4c-4.8-3.2-9-4.6-12.5-4.8c0,0-3.7-1.2-9.1,3 c-3.5,3-5,7.5-4.5,10.6c-9-8.5-24.6-3.2-22.8,14c-9.1-9.7-29.7,2.1-26,35.4c1.4,12.8,4.1,29.3,9,50.6v0l0,0l2.3,9.7l0.1,0.4 c0.4,1.8,1.1,4.5,2,7.8h8.7c-5.1-18.2-9.8-35.5-11.4-42.8c-7.3-33.2-4.5-52.5,5.3-57.1c6.2-2.9,16.4,7.6,16.4,7.6 s-2.4-16.6,5.9-20.9c6.7-3.4,11.1,3.3,15.2,9.6c-4.8-17.2,8.3-27.6,21.4-14.8c6.8,6.7,11.3,14.3,15.9,26.3 c7.5,45.7,8.7,92.1,8.7,92.1h8.1c-1.4-16.4-4.3-38.3-6.8-67c-7.4-83.6-43.4-132.2-61.4-151.6c12.6,4,28.3,7.6,41.3,10.8 c1.9,0.5,3.7,0.8,5.2,1.1c7.9,7.7,41.6,42.6,54.4,93.1c12.6,49.6,14.2,113.6,14.2,113.6h8.1c-1.4-15.5-4.3-36.3-6.8-63.4 C409.3,312.2,408.5,305.8,407.5,299.6z M174.3,104.1c-5.5,4-9,8.5-18.5,10.2c-3.2,0.6-6.1,1.6-6.1,4.5c-0.1,2.8,4.2,3.6,7.4,3.1 c7.5-1.2,15.6-3.9,22.1-7.9C185.8,109.9,180.9,100.1,174.3,104.1z M236.9,176.8c-1.5,5.3-3.7,9.2-5.5,8.6 c-1.9-0.6-3.5-13.5-3.8-20.7c-3.7-3.6-7.6-5.9-11.4-6c-19.6,0.8-40.4,56.8-34.1,60.8c8.1,5,25.4,7,34.1,7c8.7,0,25.9-2,34.1-7 C254.2,217,247.4,193.8,236.9,176.8z M340.1,33.2c0,0,8.6,36.1,3.9,65.7c7.1,3,29.8,33.2,29.8,33.2s-3.9-20.2-20-37.5 C357.3,75,351,43.4,340.1,33.2z M78.4,94.6c-16.1,17.3-20,37.5-20,37.5s22.8-30.2,29.8-33.2c-4.7-29.6,3.9-65.7,3.9-65.7 C81.1,43.4,74.8,75,78.4,94.6z" fill="#2b0806"/></g><g id="change3_2"><path d="M241.3,202.4c1.9,6.3,2.4,11.1,0.9,12.1c-6.2,3.9-19.5,5.4-26.1,5.4c-6.7,0-19.9-1.5-26.1-5.4 c-1.3-0.8-1.1-4.5,0.2-9.5C214.8,181,233.2,193.7,241.3,202.4z M241.3,202.4c1.9,6.3,2.4,11.1,0.9,12.1c-6.2,3.9-19.5,5.4-26.1,5.4 c-6.7,0-19.9-1.5-26.1-5.4c-1.3-0.8-1.1-4.5,0.2-9.5C214.8,181,233.2,193.7,241.3,202.4z" fill="#ef5454"/></g></svg>